<?xml version="1.0" encoding="utf-8"?>
<svg xmlns="http://www.w3.org/2000/svg" version="1.1" width="1000" height="800">

<circle cx="100" cy="100" r="90" fill="url(#redball)" />
<circle cx="300" cy="100" r="70" fill="url(#greenball)" />
<circle cx="500" cy="100" r="50" fill="url(#blueball)" />
<circle cx="700" cy="100" r="30" fill="url(#greyball)" />
<circle cx="100" cy="300" r="30" fill="red" />
<circle cx="300" cy="300" r="50" fill="green" />
<circle cx="500" cy="300" r="70" fill="blue" />
<circle cx="700" cy="300" r="90" fill="grey" />
<line x1="250" y1="250" x2="350" y2="350" stroke="black" />
<line x1="250" y1="350" x2="350" y2="250" stroke="black" />
<line x1="385" y1="35" x2="415" y2="65" stroke="black" />
<line x1="385" y1="65" x2="415" y2="35" stroke="black" />
<line x1="385" y1="85" x2="415" y2="115" stroke="black" />
<line x1="385" y1="115" x2="415" y2="85" stroke="black" />
<line x1="385" y1="135" x2="415" y2="165" stroke="black" />
<line x1="385" y1="165" x2="415" y2="135" stroke="black" />
<line x1="385" y1="185" x2="415" y2="215" stroke="black" />
<line x1="385" y1="215" x2="415" y2="185" stroke="black" />
<line x1="385" y1="235" x2="415" y2="265" stroke="black" />
<line x1="385" y1="265" x2="415" y2="235" stroke="black" />
<line x1="385" y1="285" x2="415" y2="315" stroke="black" />
<line x1="385" y1="315" x2="415" y2="285" stroke="black" />
<line x1="385" y1="335" x2="415" y2="365" stroke="black" />
<line x1="385" y1="365" x2="415" y2="335" stroke="black" />
  

<defs>
    <radialGradient id="redball" cx="30%" cy="30%" r="100%" fx="30%" fy="30%">
      <stop offset="0%" style="stop-color:rgb(255,250,250)" />
      <stop offset="3%" style="stop-color:rgb(255,250,250)" />
      <stop offset="7%" style="stop-color:rgb(255,160,160)" />
      <stop offset="70%" style="stop-color:rgb(255,0,0)" />
      <stop offset="100%" style="stop-color:rgb(255,0,0)" />
    </radialGradient>
    <radialGradient id="greenball" cx="30%" cy="30%" r="100%" fx="30%" fy="30%">
      <stop offset="0%" style="stop-color:rgb(250,255,250)" />
      <stop offset="3%" style="stop-color:rgb(250,255,250)" />
      <stop offset="7%" style="stop-color:rgb(160,255,160)" />
      <stop offset="70%" style="stop-color:rgb(0,255,0)" />
      <stop offset="100%" style="stop-color:rgb(0,255,0)" />
    </radialGradient>
    <radialGradient id="blueball" cx="30%" cy="30%" r="100%" fx="30%" fy="30%">
      <stop offset="0%" style="stop-color:rgb(250,250,255)" />
      <stop offset="3%" style="stop-color:rgb(250,250,255)" />
      <stop offset="7%" style="stop-color:rgb(160,160,255)" />
      <stop offset="70%" style="stop-color:rgb(0,0,255)" />
      <stop offset="100%" style="stop-color:rgb(0,255,0)" />
    </radialGradient>
    <radialGradient id="yellowball" cx="30%" cy="30%" r="100%" fx="30%" fy="30%">
      <stop offset="0%" style="stop-color:rgb(255,255,250)" />
      <stop offset="3%" style="stop-color:rgb(255,255,250)" />
      <stop offset="7%" style="stop-color:rgb(255,255,160)" />
      <stop offset="70%" style="stop-color:rgb(255,255,0)" />
      <stop offset="100%" style="stop-color:rgb(255,255,0)" />
    </radialGradient>
    <radialGradient id="greyball" cx="30%" cy="30%" r="100%" fx="30%" fy="30%">
      <stop offset="0%" style="stop-color:rgb(250,250,250)" />
      <stop offset="3%" style="stop-color:rgb(250,250,250)" />
      <stop offset="7%" style="stop-color:rgb(160,160,160)" />
      <stop offset="70%" style="stop-color:rgb(100,100,100)" />
      <stop offset="100%" style="stop-color:rgb(100,100,100)" />
    </radialGradient>
  </defs>


</svg>
