<?xml version="1.0" encoding="utf-8"?>
<svg xmlns="http://www.w3.org/2000/svg" version="1.1" width="1000" height="800">

<rect x="0" y="0" width="1000" height="800" fill="rgb(119,215,242)" />
<ellipse cx="547" cy="103" rx="50" ry="30" fill="white" />
<ellipse cx="597" cy="103" rx="40" ry="20" fill="white" />
<ellipse cx="572" cy="123" rx="35" ry="20" fill="white" />
<circle cx="500" cy="1300" r="1050" fill="rgb(218,244,252)" />
<polygon points=" 541,304 501,339 581,339" style="fill:green" />
<polygon points=" 541,329 481,389 601,389" style="fill:green" />
<polygon points=" 541,369 461,444 621,444" style="fill:green" />
<rect x="526" y="444" width="30" height="45" fill="brown" />
<circle cx="0" cy="1800" r="1250" fill="rgb(238,251,254)" />
<circle cx="1000" cy="1800" r="1250" fill="rgb(238,251,254)" />
<circle cx="500" cy="1800" r="1250" fill="rgb(238,251,254)" />
<circle cx="543" cy="606" r="25" fill="white" />
<circle cx="543" cy="671" r="40" fill="white" />
<circle cx="543" cy="606" r="25" fill="none" stroke="rgb(237,237,237)" stroke-width="2" />
<circle cx="543" cy="671" r="40" fill="none" stroke="rgb(237,237,237)" stroke-width="2" />
<polygon points=" 543,606 543,616 563,611" style="fill:orange" />
<circle cx="533" cy="599" r="5" fill="black" />
<circle cx="553" cy="599" r="5" fill="black" />
<circle cx="543" cy="651" r="5" fill="brown" />
<circle cx="543" cy="671" r="5" fill="brown" />
<circle cx="543" cy="691" r="5" fill="brown" />
<rect x="518" y="581" width="50" height="6" fill="black" />
<rect x="528" y="561" width="30" height="20" fill="black" />
<line x1="483" y1="615" x2="508" y2="650" stroke="brown" />
<line x1="483" y1="616" x2="508" y2="651" stroke="brown" />
<line x1="483" y1="617" x2="508" y2="652" stroke="brown" />
<line x1="603" y1="615" x2="578" y2="650" stroke="brown" />
<line x1="603" y1="616" x2="578" y2="651" stroke="brown" />
<line x1="603" y1="617" x2="578" y2="652" stroke="brown" />
<polygon points=" 557,678 579,701 569,696 570,708 563,701 559,713" style="fill:orange" />
<polygon points=" 533,678 511,701 521,696 520,708 527,701 531,713" style="fill:orange" />
<ellipse cx="545" cy="638" rx="30" ry="60" fill="black" />
<ellipse cx="545" cy="643" rx="25" ry="50" fill="white" />
<circle cx="545" cy="573" r="25" fill="black" />
<circle cx="545" cy="578" r="20" fill="white" />
<circle cx="537" cy="571" r="4.5" fill="black" />
<circle cx="553" cy="571" r="4.5" fill="black" />
<polygon points=" 540,579 550,579 545,588" style="fill:orange" />
<polygon points=" 523,598 511,618 506,638 508,658" style="fill:black" />
<polygon points=" 567,598 579,618 584,638 582,658" style="fill:black" />
<polygon points=" 436,759 458,782 448,777 449,789 442,782 438,794" style="fill:orange" />
<polygon points=" 412,759 390,782 400,777 399,789 406,782 410,794" style="fill:orange" />
<ellipse cx="424" cy="719" rx="30" ry="60" fill="black" />
<ellipse cx="424" cy="724" rx="25" ry="50" fill="white" />
<circle cx="424" cy="654" r="25" fill="black" />
<circle cx="424" cy="659" r="20" fill="white" />
<circle cx="416" cy="652" r="4.5" fill="black" />
<circle cx="432" cy="652" r="4.5" fill="black" />
<polygon points=" 419,660 429,660 424,669" style="fill:orange" />
<polygon points=" 402,679 390,699 385,719 387,739" style="fill:black" />
<polygon points=" 446,679 458,699 463,719 461,739" style="fill:black" />
<polygon points=" 453,596 475,619 465,614 466,626 459,619 455,631" style="fill:orange" />
<polygon points=" 429,596 407,619 417,614 416,626 423,619 427,631" style="fill:orange" />
<ellipse cx="441" cy="556" rx="30" ry="60" fill="black" />
<ellipse cx="441" cy="561" rx="25" ry="50" fill="white" />
<circle cx="441" cy="491" r="25" fill="black" />
<circle cx="441" cy="496" r="20" fill="white" />
<circle cx="433" cy="489" r="4.5" fill="black" />
<circle cx="449" cy="489" r="4.5" fill="black" />
<polygon points=" 436,497 446,497 441,506" style="fill:orange" />
<polygon points=" 419,516 407,536 402,556 404,576" style="fill:black" />
<polygon points=" 463,516 475,536 480,556 478,576" style="fill:black" />
<polygon points=" 559,573 581,596 571,591 572,603 565,596 561,608" style="fill:orange" />
<polygon points=" 535,573 513,596 523,591 522,603 529,596 533,608" style="fill:orange" />
<ellipse cx="547" cy="533" rx="30" ry="60" fill="black" />
<ellipse cx="547" cy="538" rx="25" ry="50" fill="white" />
<circle cx="547" cy="468" r="25" fill="black" />
<circle cx="547" cy="473" r="20" fill="white" />
<circle cx="539" cy="466" r="4.5" fill="black" />
<circle cx="555" cy="466" r="4.5" fill="black" />
<polygon points=" 542,474 552,474 547,483" style="fill:orange" />
<polygon points=" 525,493 513,513 508,533 510,553" style="fill:black" />
<polygon points=" 569,493 581,513 586,533 584,553" style="fill:black" />
<polygon points=" 942,740 964,763 954,758 955,770 948,763 944,775" style="fill:orange" />
<polygon points=" 918,740 896,763 906,758 905,770 912,763 916,775" style="fill:orange" />
<ellipse cx="930" cy="700" rx="30" ry="60" fill="black" />
<ellipse cx="930" cy="705" rx="25" ry="50" fill="white" />
<circle cx="930" cy="635" r="25" fill="black" />
<circle cx="930" cy="640" r="20" fill="white" />
<circle cx="922" cy="633" r="4.5" fill="black" />
<circle cx="938" cy="633" r="4.5" fill="black" />
<polygon points=" 925,641 935,641 930,650" style="fill:orange" />
<polygon points=" 908,660 896,680 891,700 893,720" style="fill:black" />
<polygon points=" 952,660 964,680 969,700 967,720" style="fill:black" />


</svg>
